<mxfile host="app.diagrams.net" modified="2024-05-16T21:48:22.801Z" agent="Mozilla/5.0 (Windows NT 10.0; Win64; x64) AppleWebKit/537.36 (KHTML, like Gecko) Chrome/124.0.0.0 Safari/537.36" version="24.4.3" etag="79__UTbTF8wfySFFEvpN" type="github">
  <diagram name="Page-1" id="vUvV6zqJSZxL_KZGraZc">
    <mxGraphModel>
      <root>
        <mxCell id="0" />
        <mxCell id="1" parent="0" />
      </root>
    </mxGraphModel>
  </diagram>
</mxfile>
